<?xml version="1.0" encoding="utf-8"?>
<!-- Generator: Adobe Illustrator 27.8.1, SVG Export Plug-In . SVG Version: 6.00 Build 0)  -->
<svg version="1.1" xmlns="http://www.w3.org/2000/svg" xmlns:xlink="http://www.w3.org/1999/xlink" x="0px" y="0px"
	 viewBox="0 0 1050 600" style="enable-background:new 0 0 1050 600;" xml:space="preserve">
<style type="text/css">
	.st0{display:none;}
	.st1{display:inline;}
	.st2{fill:url(#SVGID_1_);}
	.st3{fill:url(#SVGID_00000066474250285990722050000007592497840059953806_);}
</style>
<g id="Layer_1" class="st0">
	<g class="st1">
		
			<g id="_x35_a808c13-d571-4920-a8c4-b26745e76f34_00000114780008953435086860000005458467139106990992_" transform="matrix(4.731861591339111,0,0,4.731861591339111,-5.347015380859375,95.05047607421875)">
			<path d="M73.41,46.06V45h-6.76v9.3h6.76v-1.06H67.7v-2.96h5.07v-1.06H67.7v-3.17H73.41z M77.3,47.21c-1.83,0-2.79,0.75-2.79,2.03
				c0,2.59,4.72,1.49,4.72,3.26c0,0.96-1.23,1.12-1.81,1.12c-1.38,0-1.92-0.71-1.99-1.44h-1.1c0.07,1.25,1.1,2.34,3.08,2.34
				c1.75,0,2.89-0.75,2.89-2.13c0-2.66-4.72-1.56-4.72-3.26c0-0.69,0.59-1.02,1.69-1.02c1.19,0,1.64,0.5,1.73,1.11h1.07
				C79.94,48.19,79.16,47.21,77.3,47.21z M83.34,54.3v-6.13h1.69v-0.85h-1.69v-2.54h-0.85v2.54h-1.48v0.85h1.27v6.13H83.34z
				 M89.26,53.58c-1.41,0-2.31-0.99-2.46-2.23h5.84v-0.42c0-1.99-1.33-3.6-3.46-3.6c-2.13,0-3.46,1.6-3.46,3.6s1.4,3.6,3.53,3.6
				c1.66,0,2.69-0.87,3.18-2.12h-1.15C90.91,53.1,90.23,53.58,89.26,53.58z M89.07,48.19c1.34,0,2.18,0.91,2.38,2.1h-4.76
				C86.89,49.1,87.73,48.19,89.07,48.19z M97.43,47.33c-1.8,0-2.53,1.37-2.67,1.84v-1.84h-0.85v6.97h0.85v-2.92
				c0-1.55,0.98-3,2.61-3h0.13v-1.06H97.43z M101.52,53.58c-1.41,0-2.31-0.99-2.47-2.23h5.85v-0.42c0-1.99-1.33-3.6-3.46-3.6
				c-2.14,0-3.47,1.6-3.47,3.6s1.4,3.6,3.54,3.6c1.65,0,2.69-0.87,3.18-2.12h-1.15C103.16,53.1,102.49,53.58,101.52,53.58z
				 M101.52,48.19c1.34,0,2.18,0.91,2.38,2.1h-4.76C99.33,49.1,100.17,48.19,101.52,48.19z M106.37,47.33v6.97h1.06v-4.03
				c0-1.26,0.94-2.13,2.08-2.13c1.13,0,1.93,0.84,1.93,2.11v4.05h1.06v-4.07c0-1.99-1.35-3.04-2.77-3.04c-1.12,0-1.8,0.53-2.3,1.2
				v-1.06H106.37z M120.12,47.33h-1.48l-3.39,3.4v-6.15h-1.06v9.72h1.06v-2.2l1.33-1.3l2.47,3.5h1.29l-3.04-4.22L120.12,47.33z
				 M123.92,47.27c-2.15,0-3.48,1.61-3.48,3.61c0,2,1.33,3.61,3.48,3.61c2.14,0,3.47-1.61,3.47-3.61
				C127.39,48.88,126.06,47.27,123.92,47.27z M123.92,53.54c-1.56,0-2.43-1.22-2.43-2.66c0-1.44,0.87-2.66,2.43-2.66
				c1.55,0,2.42,1.22,2.42,2.66C126.34,52.32,125.47,53.54,123.92,53.54z M135.87,45h-3.92v9.3h3.92c2.22,0,4.26-1.75,4.26-4.64
				C140.13,46.75,138.08,45,135.87,45z M135.3,53.25H133v-7.19h2.77c1.95,0,3.21,1.63,3.21,3.59
				C138.99,51.63,137.28,53.25,135.3,53.25z M144.84,53.58c-1.41,0-2.31-0.99-2.46-2.23h5.84v-0.42c0-1.99-1.33-3.6-3.46-3.6
				s-3.46,1.6-3.46,3.6s1.4,3.6,3.53,3.6c1.66,0,2.69-0.87,3.18-2.12h-1.15C146.49,53.1,145.82,53.58,144.84,53.58z M144.65,48.19
				c1.34,0,2.18,0.91,2.38,2.1h-4.76C142.47,49.1,143.31,48.19,144.65,48.19z M151.85,47.21c-1.83,0-2.79,0.75-2.79,2.03
				c0,2.59,4.72,1.49,4.72,3.26c0,0.96-1.23,1.12-1.81,1.12c-1.38,0-1.92-0.71-1.99-1.44h-1.1c0.07,1.25,1.1,2.34,3.08,2.34
				c1.75,0,2.89-0.75,2.89-2.13c0-2.66-4.72-1.56-4.72-3.26c0-0.69,0.59-1.02,1.69-1.02c1.19,0,1.64,0.5,1.73,1.11h1.07
				C154.49,48.19,153.71,47.21,151.85,47.21z M156.25,54.3h1.06v-6.97h-1.06V54.3z M156.25,44.79v1.27h1.06v-1.27H156.25z
				 M164.49,47.33v1.12c-0.52-0.76-1.36-1.23-2.53-1.23c-2.05,0-3.41,1.55-3.41,3.54c0,2,1.36,3.55,3.41,3.55
				c1.17,0,2-0.49,2.53-1.25v0.97c0,1.44-0.7,2.2-2.32,2.2c-1.08,0-1.78-0.4-2.06-1.09h-1.17c0.39,1.22,1.51,2.03,3.28,2.03
				c2.11,0,3.33-1.09,3.33-3.08v-6.77H164.49z M162.12,53.43c-1.55,0-2.48-1.16-2.48-2.61c0-1.44,0.93-2.6,2.48-2.6
				c1.53,0,2.42,1.16,2.42,2.6C164.54,52.27,163.65,53.43,162.12,53.43z M167.45,47.33v6.97h1.06v-4.03c0-1.26,0.94-2.13,2.08-2.13
				c1.13,0,1.93,0.84,1.93,2.11v4.05h1.06v-4.07c0-1.99-1.35-3.04-2.77-3.04c-1.12,0-1.8,0.53-2.3,1.2v-1.06H167.45z"/>
		</g>
		
			<g id="_x39_9b667d3-be9f-4e29-a32e-86bd6f27e8d8_00000115514347229662984850000002791157184812677035_" transform="matrix(2.0601093769073486,0,0,2.0601093769073486,203.557373046875,-4.285597324371338)">
			<g>
				<path d="M151.56,133.69l8.57,10.61h31.44l5.99-8.71C197.56,135.6,175.78,143.22,151.56,133.69z M174.48,100.62v37.86"/>
				<path d="M153.94,134.65c11.26-2.05,20.62-31.91,20.62-31.91s37.22,13.99,16.49,33.8"/>
			</g>
		</g>
	</g>
</g>
<g id="Layer_2">
	
		<g id="_x39_9b667d3-be9f-4e29-a32e-86bd6f27e8d8_00000150091483020078119060000005299401384089746062_" transform="matrix(2.0601093769073486,0,0,2.0601093769073486,203.557373046875,-4.285597324371338)">
		<g>
			<linearGradient id="SVGID_1_" gradientUnits="userSpaceOnUse" x1="54.4513" y1="147.6915" x2="473.7184" y2="147.6915">
				<stop  offset="0.0811" style="stop-color:#021802"/>
				<stop  offset="0.2732" style="stop-color:#184632"/>
				<stop  offset="0.6269" style="stop-color:#3F9684"/>
				<stop  offset="0.8776" style="stop-color:#57C8B8"/>
				<stop  offset="1" style="stop-color:#60DBCC"/>
			</linearGradient>
			<path class="st2" d="M54.45,197.38l37.92,46.95h139.1l26.49-38.54C257.97,205.8,161.63,239.52,54.45,197.38z M155.85,51.05
				v167.51"/>
			
				<linearGradient id="SVGID_00000055671927221635207870000010369872083066278024_" gradientUnits="userSpaceOnUse" x1="64.981" y1="135.2046" x2="460.495" y2="135.2046">
				<stop  offset="0.0811" style="stop-color:#021802"/>
				<stop  offset="0.2732" style="stop-color:#184632"/>
				<stop  offset="0.6269" style="stop-color:#3F9684"/>
				<stop  offset="0.8776" style="stop-color:#57C8B8"/>
				<stop  offset="1" style="stop-color:#60DBCC"/>
			</linearGradient>
			<path style="fill:url(#SVGID_00000055671927221635207870000010369872083066278024_);" d="M64.98,201.61
				c49.82-9.07,91.23-141.18,91.23-141.18s164.69,61.89,72.97,149.55"/>
		</g>
	</g>
</g>
</svg>
